<svg id="Layer_1" data-name="Layer 1" xmlns="http://www.w3.org/2000/svg" viewBox="0 0 677.96 551.44"><defs><style>.cls-1{fill:#3f3d56;}.cls-2,.cls-8{fill:#6c63ff;}.cls-3{fill:#ff6584;}.cls-4{fill:#e6e6e6;}.cls-5{fill:#fff;}.cls-6{fill:#f2f2f2;}.cls-7{fill:#a0616a;}.cls-8{isolation:isolate;opacity:0.3;}</style></defs><rect class="cls-1" width="525.7" height="294.99"/><path class="cls-1" d="M676.1,257.75C664.2,354.07,602,439.46,522.42,495q-9.69,6.76-19.86,13L500,509.51c-47.3,28.38-101.49,46.56-155.93,40.89-44.23-4.6-87.66-28.13-113.58-63.28-.49-.66-1-1.34-1.45-2a121.38,121.38,0,0,1-21-49.22c-4.66-26.29-1-55.36-15.52-77.79-18.78-29.1-59-33.84-93.61-32.75-32.35,1-64.65,4.51-97,6.33l-2,.11V22.69A22.72,22.72,0,0,1,22.69,0H163.42c6.81.89,11.63,14.55,18.42,15q4.41.3,8.81.48c15.43.64,30.84.37,46.23-.48,9-.49,20-14.18,29-15H525.7c1.94.64,3.86,1.31,5.78,2a215.51,215.51,0,0,1,24.2,10.44C642.24,56.33,688,161.43,676.1,257.75Z"/><path class="cls-2" d="M567.39,129.14c-40.29,37.5-93.66,61.56-148.48,67.33q-8.07.85-16.18,1.17c-1.2.05-2.4.08-3.61.11-2,.05-3.93.07-5.89.07q-3.53,0-7.05-.1a256.54,256.54,0,0,1-40.52-4.43L344.2,193q-3.17-.62-6.31-1.32-6-1.34-12-3c-1.29-.35-2.58-.71-3.87-1.09-1.85-.53-3.69-1.09-5.53-1.66l-2.07-.66q-1.05-.33-2.1-.69-6.4-2.1-12.7-4.56a255.12,255.12,0,0,1-66.37-37.91c-2.78-2.21-5.6-4.53-8.32-6.78-14.62-12.06-29.74-24.53-48.17-27.25-19.9-2.93-39,6.13-57.5,14.89-6.27,3-12.75,6-19.16,8.61A152.67,152.67,0,0,1,2,136.31c-.67-.18-1.34-.38-2-.58v-2.09l2,.59a150.75,150.75,0,0,0,97.36-4.47c6.35-2.54,12.81-5.6,19-8.56,18.75-8.89,38.14-18.08,58.64-15.06,19,2.8,34.32,15.45,49.15,27.69,2.72,2.24,5.53,4.56,8.29,6.76a253.09,253.09,0,0,0,65.94,37.65h0c4,1.56,8.09,3,12.18,4.39l1.77.58,2,.63q2.53.81,5.08,1.54t5,1.42h0q6.45,1.75,13,3.17c2,.44,3.94.84,5.93,1.22l1.31.25a253.56,253.56,0,0,0,38.86,4.26h0q6.8.21,13.57.05l3.52-.11q7.66-.3,15.31-1.08h0c54.65-5.59,107.89-29.51,148-66.89a1,1,0,0,1,1.36,1.47Z"/><path class="cls-3" d="M208,202.34a2.7,2.7,0,0,1-.31.72v-2.79A2.87,2.87,0,0,1,208,202.34Z"/><ellipse class="cls-4" cx="213.58" cy="212.68" rx="3.27" ry="2.28" transform="translate(-21.5 401.31) rotate(-83.62)"/><ellipse class="cls-1" cx="216.36" cy="233.88" rx="3.27" ry="2.28" transform="translate(-40.1 422.93) rotate(-83.62)"/><ellipse class="cls-5" cx="499.94" cy="290.59" rx="3.6" ry="5.18" transform="translate(95.44 703.83) rotate(-75.78)"/><ellipse class="cls-1" cx="466.1" cy="290.38" rx="3.6" ry="5.18" transform="translate(70.12 670.86) rotate(-75.78)"/><ellipse class="cls-3" cx="506.29" cy="318.67" rx="3.6" ry="5.18" transform="translate(73.01 731.17) rotate(-75.78)"/><ellipse class="cls-4" cx="516.94" cy="330.28" rx="3.27" ry="2.28" transform="translate(131.3 807.34) rotate(-83.62)"/><ellipse class="cls-1" cx="519.72" cy="351.49" rx="3.27" ry="2.28" transform="translate(112.7 828.96) rotate(-83.62)"/><ellipse class="cls-4" cx="485.12" cy="311.07" rx="3.27" ry="2.28" transform="translate(122.1 758.65) rotate(-83.62)"/><ellipse class="cls-3" cx="502.15" cy="304.67" rx="3.27" ry="2.28" transform="translate(143.6 769.89) rotate(-83.62)"/><ellipse class="cls-1" cx="481.17" cy="287.39" rx="3.27" ry="2.28" transform="translate(142.13 733.67) rotate(-83.62)"/><ellipse class="cls-5" cx="158.89" cy="46.09" rx="3.6" ry="5.18" transform="translate(75.18 188.78) rotate(-75.78)"/><ellipse class="cls-1" cx="218.74" cy="164.77" rx="3.6" ry="5.18" transform="translate(5.28 336.33) rotate(-75.78)"/><ellipse class="cls-3" cx="167.17" cy="74.11" rx="3.66" ry="5.26" transform="translate(54.27 217.95) rotate(-75.78)"/><ellipse class="cls-4" cx="175.88" cy="85.77" rx="3.27" ry="2.28" transform="translate(71.11 251.04) rotate(-83.62)"/><ellipse class="cls-1" cx="31.26" cy="111.42" rx="3.27" ry="2.28" transform="translate(-82.94 130.11) rotate(-83.62)"/><ellipse class="cls-4" cx="144.07" cy="66.56" rx="3.27" ry="2.28" transform="translate(61.92 202.35) rotate(-83.62)"/><ellipse class="cls-3" cx="162.97" cy="59.89" rx="3.32" ry="2.31" transform="translate(85.35 215.2) rotate(-83.62)"/><ellipse class="cls-1" cx="140.11" cy="42.88" rx="3.27" ry="2.28" transform="translate(81.94 177.37) rotate(-83.62)"/><circle class="cls-5" cx="158.37" cy="194.1" r="4"/><circle class="cls-5" cx="26.91" cy="231.02" r="2"/><circle class="cls-5" cx="457.37" cy="383.1" r="2"/><circle class="cls-5" cx="199.37" cy="291.1" r="2"/><circle class="cls-5" cx="235.37" cy="82.1" r="2"/><circle class="cls-5" cx="562.37" cy="159.1" r="2"/><circle class="cls-5" cx="211.32" cy="47.59" r="2"/><circle class="cls-5" cx="461.37" cy="43.1" r="4"/><circle class="cls-6" cx="360.37" cy="94.1" r="40"/><circle class="cls-6" cx="354.37" cy="97.1" r="40"/><path class="cls-6" d="M398.37,535H360.88v-.47A14.6,14.6,0,0,1,375.47,520h0l6.85-5.19L395.1,520h3.27Z"/><path class="cls-6" d="M380.92,514.79l-32,19.48-.25-.4a14.59,14.59,0,0,1,4.88-20h0l3.16-8,13.61-2.2,2.8-1.7Z"/><path class="cls-6" d="M402.94,408.57c-.17,1.2-.42,5.28-.71,11.22-1.41,28.8-3.86,101.31-3.86,101.31l-15.27-4.75s-18.16-54.78-15.16-84.78l-2.16-10.44-3.7-17.84h0L350.81,349s-2.47,14.72-2.67,18.17-2.2,4.45-3.2,4.45c-5,0-3.47-.89-2.74,4.06.53,3.56-3.81,24-6.29,35.13-1,4.34-1.64,7.28-1.64,7.28l4.24,9.14L373.66,503l-13.29,7.12-53-78.58-5.23-7.75L301,415.08l-8.82-68.37s-2.75-7.73,0-7.93,4.32.66,3.54-2.27,15.22-51.94,15.22-51.94l83,18s8.18,16.26,5,24,2.61,67.68-.7,70.34-5.43.53-.87,5.1a8.64,8.64,0,0,0,2.43,1.76C402.62,405.05,403.74,403,402.94,408.57Z"/><circle class="cls-7" cx="354.11" cy="98.96" r="23.06"/><path class="cls-1" d="M372.08,118.82l-9.14,1.75s8.5-13.72,8-20S363.6,92,363.6,92s-3.79.82-7.78,1.28A20.06,20.06,0,0,0,354,89.47a6.74,6.74,0,0,1-2,4.14,11.14,11.14,0,0,1-4.33-.5c-1.58-.72-1.55-2-1-3.14A41.39,41.39,0,0,0,331.83,94a41,41,0,0,1,.35-9.2l.66-.2a20.69,20.69,0,0,0,3.92-1.71,6.85,6.85,0,0,1-3.7-1.74c.84-2.46,2.18-4.59,4.29-5.63a15.77,15.77,0,0,1,13.13-.35s-4.89-3.57-3.09-5l.37.34.54.43c1.11.9,2.77-.37,3-1.73a3.84,3.84,0,0,1,.1-.51c0-.14.07-.28.11-.41a2,2,0,0,1,.12-.34c3.33-.8,13.4,2.45,17.27,9.61C368.89,77.57,395.94,90.57,372.08,118.82Z"/><path class="cls-2" d="M363.73,324.38a8.94,8.94,0,0,1,7.32-10.09,9.55,9.55,0,0,1,1.41-.1l24.11-56,16.54,12.41-32.2,53a8.91,8.91,0,0,1-7.37,8,8.52,8.52,0,0,1-9.78-7.05h0Z"/><path class="cls-2" d="M296.2,328.94a8.93,8.93,0,0,0,0-12.46,8.53,8.53,0,0,0-1.08-.91l13.35-59.47-20.67.34-5.08,61.83a8.9,8.9,0,0,0,1.27,10.8,8.52,8.52,0,0,0,12,0h0Z"/><path class="cls-6" d="M429.44,229.39c-3,4-7-.51-3,5.25,2.75,4-13,41.08-23.1,63.82-4.56,10.29-8,17.64-8,17.64l-17-9.85-2-1.15S392,265.84,397,251.73c.83-2.34,1.38-4,1.51-4.65.94-4.69,1.06-8.71,0-10.2a15.33,15.33,0,0,1-.64-1.71c-2-5.89-8.13-25.78-13.86-44.59-1.67-5.52-3.32-10.94-4.82-15.89-3.85-12.71-6.74-22.3-6.74-22.3l23,1s.38.64,1.05,1.8c1.6,2.76,4.88,8.45,8.68,15.29,2.74,4.92,5.76,10.45,8.61,15.89,7.26,13.84,13.51,27.17,11.66,29-4,4-8.09,1.73-3.05,6.86S432.44,225.39,429.44,229.39Z"/><path class="cls-6" d="M401.94,282.57c-6-5.94-4.89-33-4.89-33s6-90.9-2.11-97a111.68,111.68,0,0,0-17.76-10.49l-.55-.25-5.16-14.55-31.79-1.65-5.55,10.78s-.87.06-2.23.25c-5.08.7-17,3.18-16,10.91,1.34,9.8-8.12,70-11,73s-2.12,14,5,21,2,26-3,34a27.34,27.34,0,0,0-4,16.34s4,21.66,14,14.66c3.81-2.67,9.22-3,15.73-2.52h.2l-.2,1c9,.67,20.21,2.94,32.16,2.81l-.35-1h.35c2,0,4.05-.11,6.11-.29,17.82-1.55,25.69,3.35,28-2S407.94,288.51,401.94,282.57Z"/><circle class="cls-8" cx="354.37" cy="97.1" r="30"/><path class="cls-6" d="M339.94,142.39s-4.56,15.14-9.87,32.61c-1.67,5.5-3.42,11.23-5.12,16.8-5.55,18.11-10.61,34.43-11.08,35.08-1.06,1.49-.93,5.51,0,10.2.19.94-.24,4.6-1.05,9.85-1.06,6.89-2.77,16.51-4.59,26.33-1.45,7.85-3,15.82-4.28,22.61-2.05,10.54-3.58,18.23-3.58,18.23h-19s3.57-79.71,7.57-85.46,0-1.25-3-5.25,2-2,7-7.14,1-2.86-3-6.86c-1.48-1.48,1.83-10.91,6.59-22.2,2.22-5.24,4.75-10.89,7.25-16.33C309,159.63,314,149.3,316,145.22v0l.9-1.8Z"/><path class="cls-1" d="M381.37,146.1c-20.88,8.11-39.65,9.5-55,0v-18c18.08,10.84,36.42,10.55,55,0Z"/><path class="cls-1" d="M397.37,261.1c-32.26,8.11-61.28,9.5-85,0v-18c27.94,10.84,56.28,10.55,85,0Z"/><path class="cls-1" d="M402.94,408.57c-.17,1.2-.42,5.28-.71,11.22a147.8,147.8,0,0,1-36.45,1.34l-3.7-17.84a113.19,113.19,0,0,0,37.72.48C402.62,405.05,403.74,403,402.94,408.57Z"/><path class="cls-1" d="M338.51,427.18a195.87,195.87,0,0,1-31.16,4.34l-5.23-7.75L301,415.08a118.91,118.91,0,0,0,34.91-4.32c-1,4.34-1.64,7.28-1.64,7.28Z"/><path class="cls-2" d="M341.37,184.1a10,10,0,1,1-20,0c0-5.53,9-17,10-10S341.37,178.57,341.37,184.1Z"/><path class="cls-2" d="M332.46,167.14c-.36,0-.72,0-1.09,0a17,17,0,0,0-17,16.11c0,.29,0,.59,0,.89s0,.81.05,1.21a17,17,0,0,0,31.24,8,16,16,0,0,0,1-1.85,17,17,0,0,0-14.24-24.3ZM344.2,193a16.9,16.9,0,0,1-12.83,6.1A15,15,0,0,1,316.49,186a14.56,14.56,0,0,1-.12-1.87,2.26,2.26,0,0,1,0-.26,15,15,0,0,1,15-14.74c.09.24.18.47.28.69,4.27,10.1,13.53,9.34,14.72,14.31a9.79,9.79,0,0,1-1,7.09A11.54,11.54,0,0,1,344.2,193Z"/></svg>