<svg id="Layer_1" data-name="Layer 1" xmlns="http://www.w3.org/2000/svg" viewBox="0 0 421.45 520.86"><defs><style>.cls-1{fill:#a0616a;}.cls-2{fill:#3f3d56;}.cls-3{fill:#6c63ff;}.cls-4{fill:#2f2e41;}.cls-5{isolation:isolate;opacity:0.1;}.cls-6{fill:#ccc;}</style></defs><path class="cls-1" d="M402.87,273.37a14.65,14.65,0,0,0,11-26.92l-31.1-35.28-26.31,5.68,37,36.24a14.58,14.58,0,0,0,7,19.4,14.79,14.79,0,0,0,2.41.88Z"/><polygon class="cls-2" points="300.55 147.06 378.06 244.36 401.69 233.51 310.58 91.66 300.55 147.06"/><circle class="cls-2" cx="117.87" cy="512.17" r="8.5"/><path class="cls-2" d="M124.05,341s20.1-61.06,21.64-65.31,17.78,2.7,22,3.86,3.09,5.41,3.09,5.41l-21.64,62.61,6.57,3.09,20.09-63c11.6-12,3.1-12.75,3.1-12.75s-24.74-8.51-34-9.28-5.8,10.44-5.8,10.44l-22.41,59.51Z"/><path class="cls-3" d="M172.36,355.65h0a24.06,24.06,0,0,0-11.59-8.88c-.16-.07-.36-.14-.58-.21-10.64-3.72-84.82-23.75-84.82-23.75s-14.69-5.41-21.26,9.27S8.5,468.5,8.5,468.5s76.34,40.82,98.6,45.27a13.47,13.47,0,0,0,4.2.33,60,60,0,0,0,11.12-2.66A46.54,46.54,0,0,0,133.71,506L177,376.52S183.18,362.22,172.36,355.65Z"/><path class="cls-2" d="M172.36,355.65h0a24.06,24.06,0,0,0-11.59-8.88c-.16-.07-.36-.14-.58-.21,3.5,6.13,4.83,15.66,4.83,15.66S122.5,488.59,118.64,500.57c-2.94,9.13-8.88,12.24-11.54,13.2a13.47,13.47,0,0,0,4.2.33,60,60,0,0,0,11.12-2.66,25,25,0,0,0,2.79-3.91s43.28-129.46,47.15-135.65S172.36,355.65,172.36,355.65Z"/><circle class="cls-2" cx="91.78" cy="512.36" r="8.5"/><path class="cls-1" d="M159.13,280.83a14.65,14.65,0,0,1-12-26.51L177,218l26.49,4.74-35.69,37.54a14.55,14.55,0,0,1-8.64,20.6Z"/><polygon class="cls-1" points="362.4 440.86 380.87 440.57 378.65 503.54 362.4 503.54 362.4 440.86"/><path class="cls-4" d="M358.26,498.23h32a20.39,20.39,0,0,1,20.39,20.4v.66H358.26Z"/><polygon class="cls-1" points="240.08 424.16 260.26 437.12 219.9 485.68 206.22 476.9 240.08 424.16"/><path class="cls-4" d="M205.6,470.2l26.93,17.29h0a20.39,20.39,0,0,1,6.14,28.18l-.35.56-44.09-28.31Z"/><path class="cls-2" d="M232.89,231.89S277.73,83,292.14,81s37.63,38.21,37.63,38.21C359.87,157.57,390.92,282,390.92,282s-51.75,3.23-89.58,23.36-82.47-1-82.47-1Z"/><path class="cls-5" d="M232.89,231.89S277.73,83,292.14,81s31.73,38.62,31.73,38.62c15,62,67.05,162.42,67.05,162.42s-51.75,3.23-89.58,23.36-82.47-1-82.47-1Z"/><polygon class="cls-4" points="269.68 187.33 269.68 262.17 260.87 370.57 216.87 452.57 237.87 467.57 297.87 389.57 321.61 312.12 358.87 483.57 386.87 481.57 367.43 243.86 330.53 176.95 269.68 187.33"/><path class="cls-6" d="M314.89,115c14,14,1,29,1,29l16,36-63,17-22-98.38,15-16c30-1,30-1.62,30-1.62C297.15,86.1,314.89,115,314.89,115Z"/><path class="cls-2" d="M244,88.64h0A26.88,26.88,0,0,0,236.21,123c7.22,13.77,15,35.12,11,58.55-7.24,42.4-30.47,74.61-43.4,85-4.51,3.6-4.66,8.85-4,12.61,1.85,10.52,12.05,22.46,19.1,24.86a4.91,4.91,0,0,0,1.47.23c11.47,0,39.66-36.5,72.06-107.81,20.18-44.41,5.53-80-10.31-102.08a26.88,26.88,0,0,0-37.52-6.09l-.25.18Z"/><polygon class="cls-2" points="273.87 131.57 182.89 250.95 158.89 240.95 244.89 95.95 273.87 131.57"/><path class="cls-4" d="M300.86,68H238.28a4.85,4.85,0,0,1-4.85-4.85v-27h0a36.15,36.15,0,1,1,72.29,0v27A4.86,4.86,0,0,1,300.86,68Z"/><circle class="cls-1" cx="277" cy="40.86" r="26.5"/><path class="cls-4" d="M314.27,38.86H276l-.39-5.5-2,5.5h-5.89L267,28l-3.89,10.89h-11.4v-.54A28.62,28.62,0,0,1,280.28,9.73h5.4a28.62,28.62,0,0,1,28.59,28.59Z"/><path class="cls-4" d="M275.69,73a4.91,4.91,0,0,1-.86-.08l-28-4.94V21.7h30.85l-.77.89C266.27,35,274.27,55.07,280,65.94a4.79,4.79,0,0,1-.38,5.08A4.84,4.84,0,0,1,275.69,73Z"/><circle class="cls-2" cx="8.5" cy="478.7" r="8.5"/></svg>